<?xml version="1.0" encoding="UTF-8"?>
<svg width="20px" height="15px" viewBox="0 0 20 15" version="1.1" xmlns="http://www.w3.org/2000/svg" xmlns:xlink="http://www.w3.org/1999/xlink">
    <!-- Generator: Sketch 61 (89581) - https://sketch.com -->
    <title>Fill 1</title>
    <desc>Created with Sketch.</desc>
    <defs>
        <linearGradient x1="50%" y1="0%" x2="50%" y2="100%" id="linearGradient-1">
            <stop stop-color="#FECF4F" offset="0%"></stop>
            <stop stop-color="#E15DD5" offset="100%"></stop>
        </linearGradient>
    </defs>
    <g id="1.0.见习" stroke="none" stroke-width="1" fill="none" fill-rule="evenodd">
        <g id="1.0.1.首页_评论" transform="translate(-328.000000, -41.000000)" fill="url(#linearGradient-1)">
            <g id="Top-Bar">
                <path d="M338,47.4285714 C336.158974,47.4285714 334.666667,48.6277285 334.666667,50.1071844 C334.666667,51.5864741 336.158974,52.7857143 338,52.7857143 C339.840922,52.7857143 341.333333,51.5865572 341.333333,50.1071844 C341.33323,48.6277285 339.840922,47.4285714 338,47.4285714 M338.555556,54.9285714 C335.793968,54.9285714 333.555556,52.7689367 333.555556,50.1071895 C333.555556,47.445349 335.793968,45.2857143 338.555556,45.2857143 C341.317143,45.2857143 343.555556,47.445349 343.555556,50.1071895 C343.555556,52.7689367 341.317046,54.9285714 338.555556,54.9285714 M346.1305,43.6409209 L342.5198,43.6409209 L342.5198,42.7277172 C342.5198,41.7735598 341.6469,41 340.5715,41 L335.4263,41 C334.351,41 333.4781,41.7735598 333.4781,42.7277172 L333.4781,43.6409209 L329.8673,43.6409209 C328.8369,43.6409209 328,44.3857492 328,45.3029662 L328,54.3379547 C328,55.2571783 328.8369,56 329.8673,56 L346.1327,56 C347.1631,56 348,55.2550804 348,54.3379547 L348,45.3029662 C347.9978,44.3857492 347.1631,43.6409209 346.1305,43.6409209" id="Fill-1"></path>
            </g>
        </g>
    </g>
</svg>