<?xml version="1.0" encoding="utf-8"?>
<!-- Generator: Adobe Illustrator 23.0.4, SVG Export Plug-In . SVG Version: 6.00 Build 0)  -->
<svg version="1.1" id="图层_1" xmlns="http://www.w3.org/2000/svg" xmlns:xlink="http://www.w3.org/1999/xlink" x="0px" y="0px"
	 viewBox="0 0 120 120" style="enable-background:new 0 0 120 120;" xml:space="preserve">
<style type="text/css">
	.st0{fill:#F2E2E3;}
	.st1{fill:#FE6C6C;}
	.st2{fill:#FCCACB;}
	.st3{fill:#F58287;}
	.st4{fill:#A2DAE7;}
</style>
<g>
	<g>
		<path class="st0" d="M59.9,116.5L59.9,116.5c-1,0-1.8-0.8-1.8-1.8l0.1-49.2c0-1,0.8-1.8,1.8-1.8h0c1,0,1.8,0.8,1.8,1.8l-0.1,49.2
			C61.8,115.7,60.9,116.5,59.9,116.5z"/>
		<g>
			<path class="st1" d="M60,41.4c0,0-13.5-2.4-8.3-21.1c0,0,6.2-12.5,20.5-13.5c0,0,11.8,2.9,17.1,10.8c0,0-17.2-13.8-32.1,1.7
				C57.3,19.3,49.1,27.8,60,41.4z"/>
			<path class="st2" d="M60,41.4c0,0-13.6,1.2-13.4-18.2c0,0,2.7-13.7,16.3-18.4c0,0,12.2-0.2,19.3,6c0,0-20.2-8.9-30.6,10
				C51.6,20.8,46,31.1,60,41.4z"/>
			<path class="st3" d="M60,41.4c0,0-12.9,4.7-17.7-14.1c0,0-0.9-13.9,11-22c0,0,11.7-3.4,20.2,0.8c0,0-21.8-3.4-26.9,17.5
				C46.6,23.7,43.8,35.1,60,41.4z"/>
			<path class="st2" d="M60,41.4c0,0-11.2,7.9-20.7-9c0,0-4.5-13.2,4.9-24.1c0,0,10.4-6.3,19.7-4.4c0,0-21.9,2.4-21.5,23.9
				C42.4,27.7,42.7,39.5,60,41.4z"/>
			<path class="st1" d="M60,41.4c0,0-8.8,10.5-22.4-3.4c0,0-7.8-11.6-1.5-24.5c0,0,8.4-8.8,17.9-9.4c0,0-20.5,8-14.6,28.7
				C39.5,32.8,42.8,44,60,41.4z"/>
			<path class="st2" d="M60,41.4c0,0-5.8,12.4-22.5,2.5c0,0-10.5-9.2-7.8-23.3c0,0,5.9-10.7,14.9-13.7c0,0-17.8,13-6.7,31.4
				C38,38.4,44.1,48.4,60,41.4z"/>
			<path class="st3" d="M60,41.4c0,0-2.4,13.5-21.1,8.3c0,0-12.5-6.2-13.5-20.5c0,0,2.9-11.8,10.8-17.1c0,0-13.8,17.2,1.7,32.1
				C37.9,44.2,46.4,52.3,60,41.4z"/>
			<path class="st2" d="M60,41.4c0,0,1.2,13.6-18.2,13.4c0,0-13.7-2.7-18.4-16.3c0,0-0.2-12.2,6-19.3c0,0-8.9,20.2,10,30.6
				C39.4,49.8,49.7,55.4,60,41.4z"/>
			<path class="st1" d="M60,41.4c0,0,4.7,12.9-14.1,17.7c0,0-13.9,0.9-22-11c0,0-3.4-11.7,0.8-20.2c0,0-3.4,21.8,17.5,26.9
				C42.3,54.8,53.7,57.6,60,41.4z"/>
			<path class="st2" d="M60,41.4c0,0,7.9,11.2-9,20.7c0,0-13.2,4.5-24.1-4.9c0,0-6.3-10.4-4.4-19.7c0,0,2.4,21.9,23.9,21.5
				C46.3,59,58.1,58.7,60,41.4z"/>
			<path class="st3" d="M60,41.4c0,0,10.5,8.8-3.4,22.4c0,0-11.6,7.8-24.5,1.5c0,0-8.8-8.4-9.4-17.9c0,0,8,20.5,28.7,14.6
				C51.3,61.9,62.6,58.6,60,41.4z"/>
			<path class="st2" d="M60,41.4c0,0,12.4,5.8,2.5,22.5c0,0-9.2,10.5-23.3,7.8c0,0-10.7-5.9-13.7-14.9c0,0,13,17.8,31.4,6.7
				C56.9,63.5,67,57.3,60,41.4z"/>
			<path class="st1" d="M60,41.4c0,0,13.5,2.4,8.3,21.1c0,0-6.2,12.5-20.5,13.5c0,0-11.8-2.9-17.1-10.8c0,0,17.2,13.8,32.1-1.7
				C62.7,63.5,70.9,55,60,41.4z"/>
			<path class="st2" d="M60,41.4c0,0,13.6-1.2,13.4,18.2c0,0-2.7,13.7-16.3,18.4c0,0-12.2,0.2-19.3-6c0,0,20.2,8.9,30.6-10
				C68.4,62,74,51.7,60,41.4z"/>
			<path class="st3" d="M60,41.4c0,0,12.9-4.7,17.7,14.1c0,0,0.9,13.9-11,22c0,0-11.7,3.4-20.2-0.8c0,0,21.8,3.4,26.9-17.5
				C73.4,59.2,76.2,47.7,60,41.4z"/>
			<path class="st2" d="M60,41.4c0,0,11.2-7.9,20.7,9c0,0,4.5,13.2-4.9,24.1c0,0-10.4,6.3-19.7,4.4c0,0,21.9-2.4,21.5-23.9
				C77.6,55.1,77.3,43.3,60,41.4z"/>
			<path class="st1" d="M60,41.4c0,0,8.8-10.5,22.4,3.4c0,0,7.8,11.6,1.5,24.5c0,0-8.4,8.8-17.9,9.4c0,0,20.5-8,14.6-28.7
				C80.5,50.1,77.2,38.8,60,41.4z"/>
			<path class="st2" d="M60,41.4c0,0,5.8-12.4,22.5-2.5c0,0,10.5,9.2,7.8,23.3c0,0-5.9,10.7-14.9,13.7c0,0,17.8-13,6.7-31.4
				C82,44.5,75.9,34.4,60,41.4z"/>
			<path class="st3" d="M60,41.4c0,0,2.4-13.5,21.1-8.3c0,0,12.5,6.2,13.5,20.5c0,0-2.9,11.8-10.8,17.1c0,0,13.8-17.2-1.7-32.1
				C82.1,38.7,73.6,30.5,60,41.4z"/>
			<path class="st2" d="M60,41.4c0,0-1.2-13.6,18.2-13.4c0,0,13.7,2.7,18.4,16.3c0,0,0.2,12.2-6,19.3c0,0,8.9-20.2-10-30.6
				C80.6,33,70.3,27.4,60,41.4z"/>
			<path class="st1" d="M60,41.4c0,0-4.7-12.9,14.1-17.7c0,0,13.9-0.9,22,11c0,0,3.4,11.7-0.8,20.2c0,0,3.4-21.8-17.5-26.9
				C77.7,28,66.3,25.2,60,41.4z"/>
			<path class="st2" d="M60,41.4c0,0-7.9-11.2,9-20.7c0,0,13.2-4.5,24.1,4.9c0,0,6.3,10.4,4.4,19.7c0,0-2.4-21.9-23.9-21.5
				C73.7,23.9,61.9,24.1,60,41.4z"/>
			<path class="st3" d="M60,41.4c0,0-10.5-8.8,3.4-22.4c0,0,11.6-7.8,24.5-1.5c0,0,8.8,8.4,9.4,17.9c0,0-8-20.5-28.7-14.6
				C68.7,20.9,57.4,24.2,60,41.4z"/>
			<path class="st2" d="M60,41.4c0,0-12.4-5.8-2.5-22.5c0,0,9.2-10.5,23.3-7.8c0,0,10.7,5.9,13.7,14.9c0,0-13-17.8-31.4-6.7
				C63.1,19.4,53,25.5,60,41.4z"/>
		</g>
	</g>
	<g>
		<path class="st4" d="M81.9,93.9c7.9-6.8-3.4-13.1-3.4-13.1s11.3-6.2,3.4-13.1c0,0-5.3-5.3-10.4,0c-5.1,5.3-12.9,13.1-12.9,13.1
			s7.8,7.8,12.9,13.1C76.6,99.1,81.9,93.9,81.9,93.9z"/>
		<path class="st4" d="M36.2,93.8c-7.9-6.9,3.4-13.1,3.4-13.1s-11.3-6.3-3.4-13.1c0,0,5.3-5.3,10.4,0s12.9,13.1,12.9,13.1
			s-7.8,7.8-12.9,13.1C41.6,99.1,36.2,93.8,36.2,93.8z"/>
	</g>
</g>
</svg>
