<?xml version="1.0" encoding="utf-8"?>
<!-- Generator: Adobe Illustrator 23.0.4, SVG Export Plug-In . SVG Version: 6.00 Build 0)  -->
<svg version="1.1" id="图层_1" xmlns="http://www.w3.org/2000/svg" xmlns:xlink="http://www.w3.org/1999/xlink" x="0px" y="0px"
	 viewBox="0 0 394 394" style="enable-background:new 0 0 394 394;" xml:space="preserve">
<style type="text/css">
	.st0{fill:#FF6262;}
	.st1{fill:#FFFFFF;}
</style>
<circle class="st0" cx="197" cy="197" r="190"/>
<path class="st1" d="M253.5,181.2H243v-26.8c0-25.3-21.1-45.9-47.1-45.9c-25.9,0-47,20.6-47,45.9v26.9h-10.4
	c-8.5,0-15.4,6.7-15.4,15v72.2c0,8.3,6.9,15,15.4,15h115c8.5,0,15.4-6.7,15.4-15v-72.2C268.9,188,262,181.2,253.5,181.2z
	 M168.5,154.4c0-14.7,12.3-26.7,27.4-26.7c15.1,0,27.4,12,27.4,26.7v26.9h-54.8V154.4z M206.1,249c0,5.7-4.8,10.3-10.6,10.3
	c-5.8,0-10.6-4.6-10.6-10.3v-31.2c0-5.7,4.8-10.3,10.6-10.3c5.9,0,10.6,4.6,10.6,10.3V249z"/>
</svg>
