<?xml version="1.0" standalone="no"?><!DOCTYPE svg PUBLIC "-//W3C//DTD SVG 1.1//EN" "http://www.w3.org/Graphics/SVG/1.1/DTD/svg11.dtd"><svg t="1582886668318" class="icon" viewBox="0 0 1024 1024" version="1.1" xmlns="http://www.w3.org/2000/svg" p-id="3349" xmlns:xlink="http://www.w3.org/1999/xlink" width="200" height="200"><defs><style type="text/css"></style></defs><path d="M508.658 1023.989c-68.31 0-134.596-13.388-197.018-39.791-60.275-25.495-114.397-61.983-160.864-108.45-46.467-46.468-82.955-100.59-108.449-160.863-26.403-62.426-39.79-128.712-39.79-197.018 0-68.309 13.387-134.595 39.79-197.018 25.493-60.273 61.98-114.396 108.45-160.863 46.468-46.469 100.59-82.957 160.863-108.45 62.425-26.402 128.712-39.79 197.018-39.79 68.307 0 134.592 13.388 197.016 39.79 60.274 25.493 114.397 61.981 160.864 108.45 46.469 46.467 82.955 100.589 108.45 160.863 26.402 62.421 39.79 128.707 39.792 197.018 0 68.309-13.387 134.595-39.79 197.019-25.499 60.278-61.986 114.4-108.452 160.863-46.465 46.467-100.587 82.955-160.863 108.45-62.42 26.402-128.707 39.79-197.017 39.79z m0-930.552c-234.031 0-424.429 190.398-424.429 424.429 0 234.032 190.399 424.43 424.429 424.43 234.031 0 424.429-190.398 424.429-424.43 0-234.031-190.398-424.429-424.43-424.429z" fill="#FFFFFF" p-id="3350"></path><path d="M615.286 949.645h9.47l0.271-2.523a440.481 440.481 0 0 1-9.74 2.523z" fill="#F2A307" p-id="3351"></path><path d="M824.337 308.972H810.77l-2.066 19.16z" fill="#EDA607" p-id="3352"></path><path d="M508.658 73.015c-245.292 0-444.852 199.56-444.852 444.852S263.366 962.72 508.658 962.72 953.51 763.16 953.51 517.867 753.95 73.015 508.658 73.015z" fill="#F5C607" p-id="3353"></path><path d="M539.229 658.408L395.99 833.964l117.618 62.045z m0 0l-25.62 237.601 27.658 14.59 31.647-293.476z" fill="#F5A107" p-id="3354"></path><path d="M572.914 617.123l-31.647 293.476 27.66 14.59 37.67-349.35z" fill="#F4A207" p-id="3355"></path><path d="M568.927 925.19l27.659 14.59 43.696-405.225-33.685 41.284z" fill="#F3A207" p-id="3356"></path><path d="M673.967 493.27l-33.685 41.284-43.696 405.226 18.7 9.864a440.481 440.481 0 0 0 9.741-2.523l48.94-453.851z" fill="#F2A307" p-id="3357"></path><path d="M673.967 493.27l-48.94 453.85a440.37 440.37 0 0 0 30.244-9.378l52.38-485.758-33.684 41.286z" fill="#F1A307" p-id="3358"></path><path d="M707.651 451.985l-52.38 485.758a441.89 441.89 0 0 0 30.519-11.924l55.545-515.118-33.684 41.284z" fill="#F0A407" p-id="3359"></path><path d="M741.336 410.701L685.791 925.82a443.31 443.31 0 0 0 30.835-14.868l58.395-541.534-33.685 41.284z" fill="#EFA407" p-id="3360"></path><path d="M775.02 369.416L716.625 910.95a444.787 444.787 0 0 0 31.195-18.2l60.883-564.619-33.683 41.285z" fill="#EEA507" p-id="3361"></path><path d="M747.821 892.75a447.148 447.148 0 0 0 31.624-22.17l59.645-553.133-14.753-8.475-15.633 19.16-60.883 564.619z" fill="#EDA607" p-id="3362"></path><path d="M839.09 317.447l-59.645 553.132a448.618 448.618 0 0 0 32.17-27.233l55.003-510.087-27.528-15.812z" fill="#ECA607" p-id="3363"></path><path d="M866.617 333.26l-55.003 510.086a448.895 448.895 0 0 0 32.897-33.983l49.634-460.291-27.528-15.813z" fill="#EBA707" p-id="3364"></path><path d="M844.51 809.363a447.824 447.824 0 0 0 34.019-44.375l43.143-400.104-27.528-15.812-49.633 460.291z" fill="#EAA707" p-id="3365"></path><path d="M914.797 699.748l29.509-273.663a441.213 441.213 0 0 0-16.188-57.497l-6.446-3.703L878.53 764.99a444.755 444.755 0 0 0 36.268-65.24z" fill="#E9A807" p-id="3366"></path><path d="M914.797 699.748c25.054-55.613 39.01-117.26 39.01-182.11a444.84 444.84 0 0 0-9.501-91.554l-29.51 273.664z" fill="#E8A907" p-id="3367"></path><path d="M456.52 602.775l-75.052-254.792-9.366-39.012H210.368v42.97h43.27l142.055 482.252h128.995v-0.001L824.038 309.2l-215.133-0.229z" fill="#FFFFFF" p-id="3368"></path></svg>